<?xml version="1.0" encoding="UTF-8"?>
<svg width="114" height="97" viewBox="0 0 114 97" fill="none" xmlns="http://www.w3.org/2000/svg">
  <path d="M0 53.0704C0 65.1095 9.10012 74.7724 23.8355 74.7724H91.4686C105.277 74.7724 113.755 66.5802 113.755 55.253C113.755 45.792 108.449 38.0945 99.5077 34.7149C99.6398 14.5732 85.1471 0 66.4993 0C54.6275 0 45.7111 6.098 40.1553 14.3514C29.3782 11.6395 16.9805 19.6756 16.5335 32.2095C6.37192 33.9022 0 42.3479 0 53.0704ZM56.6193 96.9999C54.3729 96.9999 52.558 95.1637 52.558 93.0303V50.1486L53.0317 43.5876L50.4479 46.6273L43.9005 53.5584C43.2029 54.3129 42.1735 54.7236 41.1815 54.7236C39.2248 54.7236 37.6065 53.2828 37.6065 51.2847C37.6065 50.2219 38.019 49.4442 38.7384 48.7354L53.4995 34.4532C54.5478 33.4156 55.5363 33.0629 56.6193 33.0629C57.6897 33.0629 58.6785 33.4156 59.7269 34.4532L74.4643 48.7354C75.1962 49.4442 75.5962 50.2219 75.5962 51.2847C75.5962 53.2828 73.9433 54.7236 72.0098 54.7236C70.9945 54.7236 69.9994 54.3129 69.3148 53.5584L62.7548 46.6273L60.1947 43.5876L60.6684 50.1486V93.0303C60.6684 95.1637 58.8531 96.9999 56.6193 96.9999Z" fill="#E6E6F6"/>
</svg>