<?xml version="1.0" encoding="UTF-8"?>
<!--Generator: Apple Native CoreSVG 326-->
<!DOCTYPE svg
PUBLIC "-//W3C//DTD SVG 1.1//EN"
       "http://www.w3.org/Graphics/SVG/1.1/DTD/svg11.dtd">
<svg version="1.1" xmlns="http://www.w3.org/2000/svg" xmlns:xlink="http://www.w3.org/1999/xlink" viewBox="0 0 14.211 19.9355">
 <g>
  <rect height="19.9355" opacity="0" width="14.211" x="0" y="0"/>
  <path d="M14.211 9.96338C14.2054 9.55198 14.0584 9.22087 13.7369 8.91093L4.92813 0.377857C4.6745 0.124224 4.36854 0 3.99947 0C3.25854 0 2.65941 0.58155 2.65941 1.32288C2.65941 1.68316 2.80919 2.02307 3.07639 2.28468L11.0352 9.95779L3.07639 17.6333C2.81199 17.8977 2.65941 18.226 2.65941 18.5979C2.65941 19.3392 3.25854 19.9296 3.99947 19.9296C4.36295 19.9296 4.6745 19.7993 4.92813 19.5489L13.7369 11.0158C14.0612 10.6971 14.211 10.3632 14.211 9.96338Z" fill="white"/>
 </g>
</svg>
