<?xml version="1.0" encoding="UTF-8"?>
<!--Generator: Apple Native CoreSVG 326-->
<!DOCTYPE svg
PUBLIC "-//W3C//DTD SVG 1.1//EN"
       "http://www.w3.org/Graphics/SVG/1.1/DTD/svg11.dtd">
<svg version="1.1" xmlns="http://www.w3.org/2000/svg" xmlns:xlink="http://www.w3.org/1999/xlink" viewBox="0 0 29.2328 25.6686">
 <g>
  <rect height="25.6686" opacity="0" width="29.2328" x="0" y="0"/>
  <path d="M0 14.5245C0 17.5786 2.30902 20.0299 6.04791 20.0299L23.2088 20.0299C26.7124 20.0299 28.8636 17.9517 28.8636 15.0782C28.8636 12.6781 27.5173 10.7254 25.2486 9.86806C25.2821 4.75849 21.6048 1.06153 16.8732 1.06153C13.8609 1.06153 11.5985 2.60848 10.1888 4.70222C7.45427 4.01425 4.30855 6.05287 4.19514 9.23249C1.61678 9.6619 0 11.8044 0 14.5245ZM14.3663 25.6686C13.7963 25.6686 13.3358 25.2028 13.3358 24.6616L13.3358 13.7833L13.456 12.1189L12.8004 12.89L11.1391 14.6483C10.9621 14.8397 10.7009 14.9439 10.4492 14.9439C9.95271 14.9439 9.54209 14.5784 9.54209 14.0715C9.54209 13.8019 9.64675 13.6046 9.8293 13.4248L13.5747 9.80168C13.8407 9.53845 14.0915 9.44898 14.3663 9.44898C14.6379 9.44898 14.8888 9.53845 15.1548 9.80168L18.8942 13.4248C19.0799 13.6046 19.1814 13.8019 19.1814 14.0715C19.1814 14.5784 18.762 14.9439 18.2714 14.9439C18.0138 14.9439 17.7613 14.8397 17.5876 14.6483L15.9231 12.89L15.2735 12.1189L15.3937 13.7833L15.3937 24.6616C15.3937 25.2028 14.9331 25.6686 14.3663 25.6686Z" fill="white"/>
 </g>
</svg>
