<?xml version="1.0" encoding="UTF-8"?>
<!--Generator: Apple Native CoreSVG 326-->
<!DOCTYPE svg
PUBLIC "-//W3C//DTD SVG 1.1//EN"
       "http://www.w3.org/Graphics/SVG/1.1/DTD/svg11.dtd">
<svg version="1.1" xmlns="http://www.w3.org/2000/svg" xmlns:xlink="http://www.w3.org/1999/xlink" viewBox="0 0 39.9681 26.7951">
 <g>
  <rect height="26.7951" opacity="0" width="39.9681" x="0" y="0"/>
  <path d="M33.1977 7.29713L33.1977 12.264C32.8476 12.1269 32.4738 12.0566 32.0945 12.0566C31.7078 12.0566 31.3266 12.1292 30.9709 12.2703L30.9709 10.9409L8.62211 10.9409L8.62211 19.2943C8.62211 20.4114 9.20064 20.964 10.2802 20.964L25.3154 20.964L24.6323 22.1871C24.4503 22.4984 24.326 22.8427 24.2654 23.1908L10.1025 23.1908C7.68399 23.1908 6.40127 21.9169 6.40127 19.5132L6.40127 7.29713C6.40127 4.89341 7.68399 3.62227 10.1025 3.62227L29.4905 3.62227C31.915 3.62227 33.1977 4.89941 33.1977 7.29713ZM15.7086 15.6997L15.7086 17.8062C15.7086 18.4418 15.2604 18.8901 14.5924 18.8901L11.815 18.8901C11.1471 18.8901 10.6988 18.4418 10.6988 17.8062L10.6988 15.6997C10.6988 15.0668 11.1471 14.6186 11.815 14.6186L14.5924 14.6186C15.2604 14.6186 15.7086 15.0668 15.7086 15.6997ZM10.2802 5.84032C9.20064 5.84032 8.62211 6.39289 8.62211 7.51597L8.62211 8.27467L30.9709 8.27467L30.9709 7.51597C30.9709 6.39289 30.3804 5.84032 29.316 5.84032Z" fill="white"/>
  <path d="M33.4436 14.3848L38.2324 22.9365C38.3754 23.1878 38.4457 23.4447 38.4457 23.7015C38.4457 24.5636 37.8241 25.2755 36.8805 25.2755L27.3089 25.2755C26.3681 25.2755 25.7525 24.5636 25.7525 23.7015C25.7525 23.4447 25.8224 23.1878 25.9626 22.9365L30.7426 14.3848C31.0402 13.8567 31.5692 13.5822 32.1005 13.5822C32.6258 13.5822 33.1432 13.8483 33.4436 14.3848ZM31.0922 22.6105C31.0922 23.1614 31.5356 23.5904 32.0917 23.5904C32.6593 23.5904 33.1 23.1614 33.106 22.6105C33.106 22.0656 32.657 21.6389 32.0917 21.6389C31.5444 21.6389 31.0922 22.0628 31.0922 22.6105ZM31.2572 17.0949L31.3507 20.192C31.3651 20.6022 31.6675 20.9018 32.0917 20.9018C32.5159 20.9018 32.8271 20.6022 32.8415 20.192L32.935 17.0949C32.9493 16.6064 32.5918 16.2629 32.0917 16.2629C31.5916 16.2629 31.2428 16.6092 31.2572 17.0949Z" fill="white"/>
 </g>
</svg>
