<?xml version="1.0" encoding="UTF-8"?>
<!--Generator: Apple Native CoreSVG 326-->
<!DOCTYPE svg
PUBLIC "-//W3C//DTD SVG 1.1//EN"
       "http://www.w3.org/Graphics/SVG/1.1/DTD/svg11.dtd">
<svg version="1.1" xmlns="http://www.w3.org/2000/svg" xmlns:xlink="http://www.w3.org/1999/xlink" viewBox="0 0 25.2842 21.7046">
 <g>
  <rect height="21.7046" opacity="0" width="25.2842" x="0" y="0"/>
  <path d="M24.7252 7.58728C24.7252 8.77292 23.7641 9.74005 22.5784 9.74005C22.1437 9.74005 21.7391 9.61001 21.4017 9.38589L16.186 12.5539C16.2015 12.649 16.2082 12.7469 16.2082 12.8463C16.2082 14.032 15.2471 14.9931 14.0614 14.9931C12.8758 14.9931 11.9147 14.032 11.9147 12.8463C11.9147 12.603 11.9551 12.3692 12.0316 12.1521L9.77428 10.2226C9.42173 10.481 8.9862 10.6322 8.51524 10.6322C7.95335 10.6322 7.44053 10.417 7.05809 10.0625L2.22084 12.8657L2.22084 10.9758L6.367 8.57726C6.36309 8.5482 6.36247 8.51828 6.36247 8.48821C6.36247 7.30257 7.3296 6.34144 8.51524 6.34144C9.70088 6.34144 10.662 7.30257 10.662 8.48821C10.662 8.61652 10.6508 8.74217 10.6271 8.86354L13.065 10.9457C13.3623 10.7881 13.7015 10.6996 14.0614 10.6996C14.5492 10.6996 14.9989 10.8622 15.3579 11.1381L20.4761 8.02324C20.4469 7.88242 20.4317 7.73658 20.4317 7.58728C20.4317 6.40164 21.3928 5.4405 22.5784 5.4405C23.7641 5.4405 24.7252 6.40164 24.7252 7.58728Z" fill="white"/>
  <path d="M0 20.7587C0 21.3263 0.378298 21.7046 0.945946 21.7046L23.789 21.7046C24.4121 21.7046 24.915 21.2393 24.915 20.5986C24.915 19.9551 24.4121 19.4898 23.789 19.4898L2.51647 19.4898C2.30233 19.4898 2.22084 19.4083 2.22084 19.1941L2.22084 1.14203C2.22084 0.524917 1.7555 0.0160332 1.11202 0.0160332C0.471337 0.0160332 0 0.524917 0 1.14203Z" fill="white"/>
 </g>
</svg>
