<svg width="14" height="16" viewBox="0 0 14 16" fill="none" xmlns="http://www.w3.org/2000/svg">
<g clip-path="url(#clip0_14_217)">
<path d="M12.9959 2.42005V9.19042C12.6639 8.74445 12.2231 8.37908 11.7116 8.13098V2.49193C11.7116 1.90765 11.3757 1.58292 10.7603 1.58292H3.99174C3.35363 1.58292 3.03923 1.91284 3.03923 2.49193V11.8905C3.03923 12.4736 3.35363 12.7984 3.99174 12.7984H6.89801C7.15787 13.2936 7.53956 13.7195 8.00509 14.0392H3.88384C2.48504 14.0392 1.75488 13.3292 1.75488 11.9624V2.42005C1.75488 1.0532 2.48504 0.343262 3.88384 0.343262H10.867C12.2724 0.343262 12.9959 1.04801 12.9959 2.42005Z" fill="white" fill-opacity="0.85"/>
<path d="M10.1931 5.91379C10.1931 6.14205 10.0167 6.31862 9.78016 6.31862H4.97683C4.73375 6.31862 4.55859 6.14205 4.55859 5.91379C4.55859 5.69297 4.73375 5.51758 4.97683 5.51758H9.78016C10.0167 5.51758 10.1931 5.69297 10.1931 5.91379Z" fill="white" fill-opacity="0.85"/>
<path d="M10.1931 3.74992C10.1931 3.97822 10.0167 4.15994 9.78016 4.15994H4.97683C4.73375 4.15994 4.55859 3.97822 4.55859 3.74992C4.55859 3.52909 4.73375 3.35889 4.97683 3.35889H9.78016C10.0167 3.35889 10.1931 3.52909 10.1931 3.74992Z" fill="white" fill-opacity="0.85"/>
<path d="M10.0982 13.8025C11.5588 13.8025 12.7637 12.6407 12.7637 11.2234C12.7637 9.81483 11.5588 8.64551 10.0982 8.64551C8.63115 8.64551 7.42627 9.81483 7.42627 11.2234C7.42627 12.6407 8.63115 13.8025 10.0982 13.8025ZM10.0982 12.8709C9.16529 12.8709 8.39151 12.1263 8.39151 11.2183C8.39151 10.3229 9.16529 9.57944 10.0982 9.57944C11.03 9.57944 11.8027 10.3229 11.8027 11.2183C11.8027 12.1263 11.03 12.8709 10.0982 12.8709ZM13.4734 15.1064C13.8151 15.1064 14.0687 14.8576 14.0687 14.5059C14.0687 14.3518 13.9954 14.2031 13.8751 14.0881L12.1824 12.4491L11.2959 13.2828L12.9846 14.8999C13.1251 15.0397 13.2805 15.1064 13.4734 15.1064Z" fill="white" fill-opacity="0.85"/>
</g>
<defs>
<clipPath id="clip0_14_217">
<rect width="14" height="16" fill="white"/>
</clipPath>
</defs>
</svg>
