<svg width="26" height="25" viewBox="0 0 26 25" fill="none" xmlns="http://www.w3.org/2000/svg">
<g clip-path="url(#clip0_17_593)">
<path d="M25.5425 12.4939C25.5425 19.3807 19.8216 24.9879 12.7702 24.9879C5.7311 24.9879 0 19.3807 0 12.4939C0 5.59721 5.7311 0 12.7702 0C19.8216 0 25.5425 5.59721 25.5425 12.4939ZM13.7785 6.51499L8.68232 11.2118C7.91757 11.8996 7.91757 13.1147 8.68232 13.8023L13.7785 18.5014C14.1713 18.8573 14.9077 18.8771 15.2691 18.5355C15.708 18.104 15.6868 17.4451 15.2771 17.0585L10.3273 12.4962L15.2771 7.95578C15.7013 7.56921 15.6912 6.87955 15.2523 6.48088C14.8572 6.11512 14.2128 6.11852 13.7785 6.51499Z" fill="white" fill-opacity="0.85"/>
</g>
<defs>
<clipPath id="clip0_17_593">
<rect width="26" height="25" fill="white"/>
</clipPath>
</defs>
</svg>
