<svg width="83" height="76" viewBox="0 0 83 76" fill="none" xmlns="http://www.w3.org/2000/svg">
<g clip-path="url(#clip0_252_29)">
<path d="M4.6429 74.0514H10.7774C13.7344 74.0514 15.4144 72.318 15.4144 69.3533V14.1235C15.4144 11.1252 13.7344 9.39786 10.7774 9.39786H4.6429C1.653 9.39786 0 11.1252 0 14.1235V69.3533C0 72.318 1.653 74.0514 4.6429 74.0514ZM23.9751 74.0514H36.6769C39.661 74.0514 41.3139 72.318 41.3139 69.3533V25.8938C41.3139 22.9229 39.661 21.1955 36.6769 21.1955H23.9751C20.9853 21.1955 19.3053 22.9229 19.3053 25.8938V69.3533C19.3053 72.318 20.9853 74.0514 23.9751 74.0514ZM26.9077 33.613C25.6394 33.613 24.6732 32.6413 24.6732 31.3911C24.6732 30.1562 25.6334 29.1846 26.9077 29.1846H33.834C35.1406 29.1846 36.0086 30.1562 36.0086 31.3911C36.0086 32.6413 35.0752 33.613 33.834 33.613H26.9077ZM26.9077 66.0896C25.6334 66.0896 24.6732 65.1182 24.6732 63.8619C24.6732 62.6332 25.6394 61.6553 26.9077 61.6553H33.834C35.0752 61.6553 36.0086 62.6332 36.0086 63.8619C36.0086 65.1182 35.0752 66.0896 33.834 66.0896H26.9077ZM49.8747 74.0514H57.5339C60.5238 74.0514 62.1767 72.318 62.1767 69.3533V4.72556C62.1767 1.72736 60.5238 0 57.5339 0H49.8747C46.8849 0 45.2317 1.72736 45.2317 4.72556V69.3533C45.2317 72.318 46.8849 74.0514 49.8747 74.0514ZM72.6986 74.2302L77.6802 73.5416C80.61 73.1905 82.063 71.3152 81.7487 68.3228L75.7437 13.9728C75.4237 11.0019 73.5975 9.45586 70.6195 9.8284L65.6652 10.5228C62.7081 10.874 61.2555 12.7493 61.5755 15.7082L67.6013 70.0643C67.9213 73.0291 69.7475 74.5813 72.6986 74.2302Z" fill="white" fill-opacity="0.85"/>
</g>
<defs>
<clipPath id="clip0_252_29">
<rect width="83" height="76" fill="white"/>
</clipPath>
</defs>
</svg>
