<svg width="9" height="16" viewBox="0 0 9 16" fill="none" xmlns="http://www.w3.org/2000/svg">
<g clip-path="url(#clip0_29_1500)">
<path d="M4.37882 0.0615234C1.93944 0.0615234 0 1.91522 0 4.2325C0 5.95041 1.06352 7.47569 2.73242 8.11476V14.3263C2.73242 14.5093 2.79567 14.6689 2.94039 14.8066L4.09663 15.8875C4.24549 16.0228 4.52514 16.0536 4.70201 15.8847L6.81739 13.8641C7.00269 13.6819 6.9948 13.4248 6.81497 13.2467L5.58919 12.0904L7.30284 10.4576C7.476 10.2859 7.47717 10.0277 7.29186 9.84545L5.62724 8.2449C7.63599 7.43244 8.75213 5.97332 8.75213 4.2325C8.75213 1.92687 6.7993 0.0615234 4.37882 0.0615234ZM4.37882 3.84392C3.75695 3.84392 3.25875 3.36396 3.25875 2.77404C3.25875 2.17888 3.75025 1.70531 4.37882 1.70531C4.99519 1.70531 5.49888 2.18004 5.49888 2.77404C5.49888 3.36396 4.99519 3.84392 4.37882 3.84392Z" fill="white" fill-opacity="0.85"/>
</g>
<defs>
<clipPath id="clip0_29_1500">
<rect width="9" height="16" fill="white"/>
</clipPath>
</defs>
</svg>
