<svg width="21" height="20" viewBox="0 0 21 20" fill="none" xmlns="http://www.w3.org/2000/svg">
<g clip-path="url(#clip0_27_793)">
<path d="M7.87145 19.9996C8.47667 19.9996 8.9541 19.7562 9.28581 19.2684L20.226 2.82846C20.4712 2.45867 20.5694 2.14925 20.5694 1.84476C20.5694 1.0722 20.0058 0.539062 19.1959 0.539062C18.6215 0.539062 18.2879 0.725301 17.9395 1.2526L7.82489 16.7421L2.6127 10.2819C2.27354 9.84885 1.91763 9.66755 1.41483 9.66755C0.583807 9.66755 0 10.2283 0 11.0029C0 11.3356 0.12896 11.6718 0.419234 12.0117L6.44941 19.2842C6.85095 19.7683 7.28508 19.9996 7.87145 19.9996Z" fill="white" fill-opacity="0.85"/>
</g>
<defs>
<clipPath id="clip0_27_793">
<rect width="21" height="20" fill="white"/>
</clipPath>
</defs>
</svg>
