<svg width="12" height="15" viewBox="0 0 12 15" fill="none" xmlns="http://www.w3.org/2000/svg">
<path d="M4.05803 11.9571C3.80135 11.9571 3.6337 11.796 3.62068 11.536L3.44036 4.85633C3.43224 4.60028 3.59881 4.43404 3.86361 4.43404C4.11263 4.43404 4.28626 4.59524 4.2933 4.85018L4.4845 11.5338C4.49155 11.7898 4.32007 11.9571 4.05803 11.9571ZM5.88999 11.9571C5.63117 11.9571 5.4548 11.792 5.4548 11.5371V4.85411C5.4548 4.59917 5.63117 4.43404 5.88999 4.43404C6.14772 4.43404 6.329 4.59917 6.329 4.85411V11.5371C6.329 11.792 6.14772 11.9571 5.88999 11.9571ZM7.72577 11.9571C7.46373 11.9571 7.29224 11.7898 7.29933 11.5338L7.48563 4.85522C7.49371 4.59524 7.6663 4.43404 7.91531 4.43404C8.1801 4.43404 8.34669 4.60028 8.33856 4.85633L8.15826 11.536C8.14522 11.796 7.97753 11.9571 7.72577 11.9571ZM3.17568 2.82625H4.27837V1.5503C4.27837 1.2322 4.49477 1.02813 4.82745 1.02813H6.94167C7.27431 1.02813 7.49077 1.2322 7.49077 1.5503V2.82625H8.59344V1.49329C8.59344 0.553872 8.01032 0 7.02029 0H4.74882C3.75881 0 3.17568 0.553872 3.17568 1.49329V2.82625ZM0.528759 3.49462H11.2551C11.5495 3.49462 11.7789 3.25418 11.7789 2.95144C11.7789 2.65092 11.5495 2.41551 11.2551 2.41551H0.528759C0.239227 2.41551 0 2.65092 0 2.95144C0 3.25921 0.239227 3.49462 0.528759 3.49462ZM3.14604 13.8623H8.63779C9.55239 13.8623 10.1464 13.2866 10.1893 12.345L10.6 3.36672H1.17893L1.59453 12.3501C1.6385 13.2916 2.22164 13.8623 3.14604 13.8623Z" fill="white" fill-opacity="0.85"/>
</svg>
