<svg width="12" height="12" viewBox="0 0 12 12" fill="none" xmlns="http://www.w3.org/2000/svg">
<g clip-path="url(#clip0_28_1098)">
<path d="M11.7888 5.99709C11.7888 9.30272 9.14842 11.9942 5.89392 11.9942C2.64512 11.9942 0 9.30272 0 5.99709C0 2.68666 2.64512 0 5.89392 0C9.14842 0 11.7888 2.68666 11.7888 5.99709ZM4.55555 3.03732C4.34832 3.23344 4.34364 3.56924 4.54882 3.76536L6.8962 6.00291L4.54882 8.2473C4.35037 8.43653 4.34524 8.76339 4.5478 8.97533C4.72399 9.14405 5.07421 9.13448 5.2592 8.95416L7.67417 6.64522C8.03181 6.30558 8.03648 5.70703 7.67417 5.36264L5.2592 3.0595C5.05504 2.86338 4.74727 2.85224 4.55555 3.03732Z" fill="white" fill-opacity="0.85"/>
</g>
<defs>
<clipPath id="clip0_28_1098">
<rect width="12" height="12" fill="white"/>
</clipPath>
</defs>
</svg>
