<svg width="59" height="80" viewBox="0 0 59 80" fill="none" xmlns="http://www.w3.org/2000/svg">
<g clip-path="url(#clip0_27_302)">
<path d="M0 65.1884C0 72.2548 3.58949 75.9021 10.4946 75.9021H47.3218C54.2269 75.9021 57.8164 72.2277 57.8164 65.1884V32.8984C57.8164 25.8533 54.2269 22.1849 47.3218 22.1849H10.4946C3.58949 22.1849 0 25.8262 0 32.8984V65.1884ZM28.8951 49.3293C27.2718 49.3293 25.9474 47.9665 25.9474 46.3555V13.2177L26.1854 8.33199L24.5033 10.4268L19.9188 15.4544C19.4076 16.0416 18.6404 16.353 17.9174 16.353C16.4528 16.353 15.2973 15.2505 15.2973 13.735C15.2973 12.9202 15.614 12.327 16.1457 11.7728L26.6538 1.32379C27.4408 0.551181 28.1286 0.299805 28.8951 0.299805C29.6879 0.299805 30.3814 0.551181 31.1364 1.32379L41.6707 11.7728C42.2083 12.327 42.493 12.9202 42.493 13.735C42.493 15.2505 41.311 16.353 39.8467 16.353C39.1237 16.353 38.3826 16.0416 37.8713 15.4544L33.3131 10.4268L31.6311 8.33199L31.8691 13.2177V46.3555C31.8691 47.9665 30.5184 49.3293 28.8951 49.3293Z" fill="white" fill-opacity="0.85"/>
</g>
<defs>
<clipPath id="clip0_27_302">
<rect width="59" height="79" fill="white" transform="translate(0 0.299805)"/>
</clipPath>
</defs>
</svg>
