<svg width="15" height="15" viewBox="0 0 15 15" fill="none" xmlns="http://www.w3.org/2000/svg">
<g clip-path="url(#clip0_27_504)">
<path d="M14.7361 7.50322C14.7361 11.6412 11.4355 14.9996 7.3674 14.9996C3.3064 14.9996 0 11.6412 0 7.50322C0 3.37111 3.3064 0.00683594 7.3674 0.00683594C11.4355 0.00683594 14.7361 3.37111 14.7361 7.50322ZM5.20873 3.81089L2.24739 6.61564C2.10602 6.75686 2.0581 6.89925 2.0581 7.05223C2.0581 7.18939 2.10602 7.34034 2.24867 7.4842L5.20873 10.3022C5.40901 10.4842 5.55094 10.5738 5.74665 10.5738C6.0164 10.5738 6.19984 10.4121 6.22166 10.2367V10.0866L3.85772 7.87129C3.6185 7.64835 3.48242 7.35688 3.48242 7.05223C3.48242 6.74888 3.61265 6.45279 3.85772 6.22985L6.22166 4.02512V3.87504C6.19984 3.69231 6.0164 3.52597 5.73952 3.52597C5.55023 3.52597 5.41742 3.61306 5.20873 3.81089ZM7.18339 3.81089L4.23046 6.61564C4.08068 6.76412 4.03147 6.89925 4.03147 7.05223C4.03147 7.18939 4.08453 7.337 4.23046 7.4842L7.18339 10.3022C7.37909 10.4854 7.54116 10.5738 7.72389 10.5738C8.0012 10.5738 8.21432 10.3643 8.21432 10.0689V8.6935H8.31299C9.69708 8.6935 10.5617 9.09382 11.1427 10.2313C11.2814 10.493 11.4648 10.5595 11.6603 10.5595C11.9154 10.5595 12.0969 10.3212 12.0969 9.87761C12.0969 7.10739 10.9011 5.42735 8.31299 5.42735H8.21432V4.04283C8.21432 3.76662 8.0012 3.52597 7.71673 3.52597C7.53071 3.52597 7.39333 3.61437 7.18339 3.81089Z" fill="white" fill-opacity="0.85"/>
</g>
<defs>
<clipPath id="clip0_27_504">
<rect width="15" height="15" fill="white"/>
</clipPath>
</defs>
</svg>
