<svg width="83" height="76" viewBox="0 0 83 76" fill="none" xmlns="http://www.w3.org/2000/svg">
<g clip-path="url(#clip0_26_259)">
<path d="M0 72.0794C0 74.3378 1.56863 76 3.48076 76H78.1661C80.1076 76 81.6762 74.3378 81.6762 72.0794C81.6762 69.8547 80.1076 68.1592 78.1661 68.1592H3.48076C1.56863 68.1592 0 69.8547 0 72.0794Z" fill="white" fill-opacity="0.85"/>
<path d="M62.5317 57.3637C62.5317 59.8491 63.9193 61.3645 66.1492 61.3645H74.1312C76.3318 61.3645 77.7487 59.8491 77.7487 57.3637V31.1616C77.7487 28.6687 76.3318 27.1201 74.1312 27.1201H66.1492C63.9193 27.1201 62.5317 28.6687 62.5317 31.1616V57.3637Z" fill="white" fill-opacity="0.85"/>
<path d="M42.9775 57.3641C42.9775 59.8496 44.3816 61.365 46.5884 61.365H54.577C56.8069 61.365 58.2238 59.8496 58.2238 57.3641V13.5287C58.2238 11.0431 56.8069 9.52783 54.577 9.52783H46.5884C44.3816 9.52783 42.9775 11.0431 42.9775 13.5287V57.3641Z" fill="white" fill-opacity="0.85"/>
<path d="M23.4521 57.3639C23.4521 59.8494 24.8397 61.3648 27.0467 61.3648H35.0517C37.2585 61.3648 38.6692 59.8494 38.6692 57.3639V4.01553C38.6692 1.52259 37.2585 0.0146484 35.0517 0.0146484H27.0467C24.8397 0.0146484 23.4521 1.52259 23.4521 4.01553V57.3639Z" fill="white" fill-opacity="0.85"/>
<path d="M3.89795 57.364C3.89795 59.8494 5.31489 61.3649 7.51541 61.3649H15.4975C17.7274 61.3649 19.1443 59.8494 19.1443 57.364V22.4545C19.1443 20.0022 17.7274 18.4536 15.4975 18.4536H7.51541C5.31489 18.4536 3.89795 20.0022 3.89795 22.4545V57.364Z" fill="white" fill-opacity="0.85"/>
</g>
<defs>
<clipPath id="clip0_26_259">
<rect width="83" height="76" fill="white"/>
</clipPath>
</defs>
</svg>
