<svg width="133" height="117" viewBox="0 0 133 117" fill="none" xmlns="http://www.w3.org/2000/svg">
<path d="M0 65.9285C0 79.7914 10.4787 90.9182 27.4464 90.9182H105.325C121.225 90.9182 130.988 81.485 130.988 68.4418C130.988 57.5474 124.878 48.6839 114.582 44.7923C114.734 21.5993 98.0462 4.81836 76.5734 4.81836C62.9031 4.81836 52.6359 11.8402 46.2385 21.3439C33.8287 18.2211 19.5529 27.4747 19.0382 41.9074C7.33722 43.8565 0 53.5816 0 65.9285ZM65.1967 116.513C62.6099 116.513 60.5201 114.399 60.5201 111.942V62.5641L61.0656 55.0092L58.0904 58.5093L50.5511 66.4904C49.7479 67.3592 48.5625 67.8322 47.4202 67.8322C45.1671 67.8322 43.3036 66.1731 43.3036 63.8723C43.3036 62.6485 43.7786 61.7529 44.607 60.9368L61.6043 44.491C62.8114 43.2962 63.9496 42.8901 65.1967 42.8901C66.4292 42.8901 67.5679 43.2962 68.775 44.491L85.745 60.9368C86.5878 61.7529 87.0484 62.6485 87.0484 63.8723C87.0484 66.1731 85.1451 67.8322 82.9187 67.8322C81.7496 67.8322 80.6038 67.3592 79.8155 66.4904L72.2617 58.5093L69.3137 55.0092L69.8592 62.5641V111.942C69.8592 114.399 67.7689 116.513 65.1967 116.513Z" fill="white" fill-opacity="0.85"/>
</svg>
