<svg width="86" height="83" viewBox="0 0 86 83" fill="none" xmlns="http://www.w3.org/2000/svg">
<path d="M49.7871 44.1822C44.2502 48.7439 40.7068 55.5931 40.7068 63.1957C40.7068 65.2479 40.9638 67.2444 41.4758 69.1448H7.80009C3.49337 69.1448 0.916992 67.1321 0.916992 63.7899C0.916992 54.0631 13.4241 40.686 33.272 40.686C39.576 40.686 45.1377 42.0301 49.7871 44.1822ZM48.7607 17.1742C48.7607 26.6461 41.6547 33.973 33.3034 33.973C24.9273 33.973 17.8527 26.6461 17.8527 17.243C17.8527 8.00761 24.9729 0.801758 33.3034 0.801758C41.6339 0.801758 48.7607 7.88361 48.7607 17.1742Z" fill="white" fill-opacity="0.85"/>
<path d="M85.5889 63.1956C85.5889 73.8109 76.5647 82.6601 65.869 82.6601C55.0477 82.6601 46.1177 73.8729 46.1177 63.1956C46.1177 52.5254 55.0477 43.7451 65.869 43.7451C76.6659 43.7451 85.5889 52.5254 85.5889 63.1956ZM63.2382 53.4661V60.6069H55.987C54.4039 60.6069 53.3563 61.6231 53.3563 63.2026C53.3563 64.7577 54.4247 65.774 55.987 65.774H63.2382V72.9732C63.2382 74.4838 64.2682 75.5314 65.869 75.5314C67.4455 75.5314 68.4684 74.4838 68.4684 72.9732V65.774H75.7262C77.2956 65.774 78.3185 64.7577 78.3185 63.2026C78.3185 61.6231 77.2956 60.6069 75.7262 60.6069H68.4684V53.4661C68.4684 51.9346 67.4455 50.8944 65.869 50.8944C64.2682 50.8944 63.2382 51.9485 63.2382 53.4661Z" fill="white" fill-opacity="0.85"/>
</svg>
