<svg width="13" height="15" viewBox="0 0 13 15" fill="none" xmlns="http://www.w3.org/2000/svg">
<g clip-path="url(#clip0_13_193)">
<path d="M6.37564 14.9999C8.74858 14.9999 10.6649 13.0921 10.6649 10.7366C10.6649 8.37564 8.74858 6.46906 6.37564 6.46906C4.00809 6.46906 2.09181 8.37564 2.09181 10.7366C2.09181 13.0921 4.00809 14.9999 6.37564 14.9999ZM5.16871 12.9304C4.90223 13.1253 4.61668 12.9286 4.72479 12.6136L5.20304 11.1926L3.97994 10.3225C3.73792 10.1453 3.80552 9.79523 4.14724 9.79643L5.65367 9.81071L6.111 8.37966C6.21017 8.06823 6.55071 8.06823 6.64988 8.37966L7.10956 9.81071L8.61483 9.79643C8.96549 9.79523 9.01755 10.1519 8.77794 10.3171L7.55902 11.1914L8.03608 12.6136C8.13999 12.9332 7.86523 13.1253 7.59336 12.9304L6.38103 12.0483L5.16871 12.9304ZM2.21663 7.62313C2.87771 6.7541 3.8004 6.09544 4.87843 5.77561L1.89096 0.429376L0.12463 3.09326C-0.0368879 3.33523 -0.041097 3.58623 0.110161 3.85999L2.21663 7.62313ZM4.88474 3.6056H7.87196L9.90265 0.0180664H2.85521L4.88474 3.6056ZM7.87823 5.77561C8.95627 6.09544 9.87477 6.7541 10.5401 7.62313L12.6477 3.85999C12.8032 3.58623 12.799 3.33523 12.632 3.09326L10.8669 0.429376L7.87823 5.77561Z" fill="white" fill-opacity="0.85"/>
</g>
<defs>
<clipPath id="clip0_13_193">
<rect width="13" height="15" fill="white"/>
</clipPath>
</defs>
</svg>
