<svg width="14" height="15" viewBox="0 0 14 15" fill="none" xmlns="http://www.w3.org/2000/svg">
<path d="M4.08335 9.67355C3.8015 9.67355 3.59178 9.46959 3.59178 9.2147C3.59178 8.96541 3.8015 8.77528 4.08335 8.77528H9.65289C9.93345 8.77528 10.137 8.96541 10.137 9.2147C10.137 9.46959 9.93345 9.67355 9.65289 9.67355H4.08335ZM4.08335 11.7519C3.8015 11.7519 3.59178 11.5619 3.59178 11.3138C3.59178 11.0576 3.8015 10.8549 4.08335 10.8549H6.77708C7.05759 10.8549 7.26122 11.0576 7.26122 11.3138C7.26122 11.5619 7.05759 11.7519 6.77708 11.7519H4.08335ZM6.68668 6.19175C6.32484 6.19175 6.11793 6.02492 6.11793 5.70638C6.11793 5.68366 6.11793 5.66093 6.11793 5.64015C6.11793 5.12887 6.42844 4.839 6.84684 4.56493C7.34228 4.2486 7.57441 4.08095 7.57441 3.75256C7.57441 3.38996 7.2786 3.14346 6.7983 3.14346C6.44298 3.14346 6.17285 3.30433 5.99059 3.60376L5.89871 3.71225C5.78472 3.86521 5.6412 3.94904 5.41322 3.94904C5.17204 3.94904 4.93663 3.78111 4.93663 3.50912C4.93663 3.41975 4.94806 3.3398 4.97433 3.25861C5.15363 2.64687 5.98643 2.25933 6.87088 2.25933C7.90494 2.25933 8.79357 2.78446 8.79357 3.69978C8.79357 4.34311 8.40928 4.67453 7.83177 5.02412C7.45433 5.25676 7.26419 5.43189 7.24951 5.70042C7.24951 5.72439 7.24683 5.74643 7.24549 5.77164C7.23347 6.00844 7.0144 6.19175 6.68668 6.19175ZM6.68193 7.84559C6.28951 7.84559 5.96981 7.57346 5.96981 7.23039C5.96981 6.87346 6.28342 6.60257 6.68193 6.60257C7.06828 6.60257 7.38056 6.86902 7.38056 7.23039C7.38056 7.57914 7.05611 7.84559 6.68193 7.84559ZM0.5 12.7274C0.5 14.224 1.32047 14.9956 2.91008 14.9956H10.8153C12.4063 14.9956 13.2254 14.224 13.2254 12.7274V2.27388C13.2254 0.782991 12.4063 0 10.8153 0H2.91008C1.32047 0 0.5 0.782991 0.5 2.27388V12.7274Z" fill="white" fill-opacity="0.85"/>
</svg>
